Coordinates
version=1
nRows=19
nColumns=24
inDegrees=yes

Units are S.I. units (second, meters, Newtons, ...)
Angles are in degrees.

endheader
time	pelvis_tilt	pelvis_list	pelvis_rotation	pelvis_tx	pelvis_ty	pelvis_tz	hip_flexion_r	hip_adduction_r	hip_rotation_r	knee_angle_r	ankle_angle_r	subtalar_angle_r	mtp_angle_r	hip_flexion_l	hip_adduction_l	hip_rotation_l	knee_angle_l	ankle_angle_l	subtalar_angle_l	mtp_angle_l	lumbar_extension	lumbar_bending	lumbar_rotation
      5.56000000	     59.50866116	      3.70903395	     -1.66093031	      0.55948741	      1.00022118	     -0.28991228	     -2.25250405	    -15.61918419	     10.91999200	    -54.42203396	    -29.36316946	     20.62637511	    104.61478572	     -2.70628384	     -7.53171336	      1.48387073	    -56.96885835	     -2.37007352	      9.76153378	    -28.77518105	      0.00000000	      0.00000000	      0.00000000
      5.57000000	     59.46823893	      3.68326520	     -1.67483636	      0.55922324	      1.00041586	     -0.29004034	     -1.95553246	    -15.59739634	     10.58548426	    -54.55421846	    -30.12118796	     19.72614847	    104.18306639	     -2.69299676	     -7.53457921	      1.47788729	    -56.91762466	     -2.39315378	      9.74274596	    -28.81133641	      0.00000000	      0.00000000	      0.00000000
      5.58000000	     59.40580736	      3.65210264	     -1.67680007	      0.55905457	      1.00052265	     -0.29009382	     -1.74195060	    -15.57816103	     10.35176977	    -54.71735720	    -30.66899072	     18.95552961	    103.61549917	     -2.65451793	     -7.55151645	      1.48163273	    -56.86677187	     -2.41474213	      9.72567935	    -28.85559356	      0.00000000	      0.00000000	      0.00000000
      5.59000000	     59.34114155	      3.62644231	     -1.66485746	      0.55908412	      1.00051326	     -0.29006885	     -1.60466183	    -15.56162907	     10.22802053	    -54.86156336	    -30.99832264	     18.36046506	    102.98673735	     -2.59991532	     -7.57854607	      1.49198772	    -56.83132536	     -2.43322463	      9.71197918	    -28.90532957	      0.00000000	      0.00000000	      0.00000000
      5.60000000	     59.29107688	      3.61221898	     -1.64520975	      0.55918916	      1.00046692	     -0.29002533	     -1.52360816	    -15.54409442	     10.19392925	    -54.95645761	    -31.13421081	     17.96302936	    102.36566661	     -2.54551141	     -7.60631085	      1.50300655	    -56.81809653	     -2.44717421	      9.70279003	    -28.95662238	      0.00000000	      0.00000000	      0.00000000
      5.61000000	     59.26205787	      3.60726065	     -1.62827823	      0.55923904	      1.00043988	     -0.29000287	     -1.48145153	    -15.52526189	     10.21492594	    -55.00000835	    -31.12384774	     17.75756051	    101.80697048	     -2.50456518	     -7.62650132	      1.50936862	    -56.82280670	     -2.45540109	      9.69831099	    -29.00438346	      0.00000000	      0.00000000	      0.00000000
      5.62000000	     59.25195383	      3.60556241	     -1.62202264	      0.55921980	      1.00042316	     -0.28999801	     -1.46671389	    -15.50991002	     10.25761720	    -55.00938959	    -31.02265137	     17.71377563	    101.34641285	     -2.48295243	     -7.63665441	      1.50865422	    -56.83487833	     -2.45719779	      9.69771084	    -29.04280249	      0.00000000	      0.00000000	      0.00000000
      5.63000000	     59.25503601	      3.60306107	     -1.62782696	      0.55918515	      1.00040193	     -0.28999633	     -1.47041435	    -15.50377234	     10.29882716	    -55.00575227	    -30.88224339	     17.78534984	    100.99997300	     -2.47990003	     -7.63971787	      1.50138388	    -56.84478516	     -2.45264614	      9.69953678	    -29.06595608	      0.00000000	      0.00000000	      0.00000000
      5.64000000	     59.26542250	      3.59959175	     -1.64113235	      0.55917371	      1.00038299	     -0.28999210	     -1.48359215	    -15.50907247	     10.32758709	    -55.00345069	    -30.74280031	     17.92079905	    100.76617413	     -2.49025410	     -7.64008860	      1.48972675	    -56.84848798	     -2.44283293	      9.70234969	    -29.06845537	      0.00000000	      0.00000000	      0.00000000
      5.65000000	     59.27805783	      3.59693563	     -1.65509192	      0.55918446	      1.00037386	     -0.28998647	     -1.49782825	    -15.52366962	     10.34262606	    -55.00727157	    -30.63004931	     18.07339937	    100.63052506	     -2.50654045	     -7.64033228	      1.47634183	    -56.84720169	     -2.42996336	      9.70520074	    -29.04614434	      0.00000000	      0.00000000	      0.00000000
      5.66000000	     59.28858263	      3.59618354	     -1.66428101	      0.55919793	      1.00037494	     -0.28998250	     -1.50691452	    -15.54314740	     10.34808054	    -55.01531307	    -30.55588230	     18.20795332	    100.57087951	     -2.52081264	     -7.64060381	      1.46390030	    -56.84426394	     -2.41745276	      9.70778280	    -28.99696185	      0.00000000	      0.00000000	      0.00000000
      5.67000000	     59.29315613	      3.59707694	     -1.66679397	      0.55920208	      1.00037959	     -0.28998385	     -1.50779567	    -15.56306646	     10.34923872	    -55.02337601	    -30.52116817	     18.30367492	    100.56262885	     -2.52658002	     -7.63997457	      1.45497165	    -56.84193962	     -2.40996073	      9.71027118	    -28.92202865	      0.00000000	      0.00000000	      0.00000000
      5.68000000	     59.28883265	      3.59883832	     -1.66410187	      0.55919828	      1.00037454	     -0.28999057	     -1.50015313	    -15.58023042	     10.34975774	    -55.02816822	    -30.51949260	     18.35365158	    100.58292405	     -2.52047007	     -7.63795355	      1.45182349	    -56.83999626	     -2.41314317	      9.71293558	    -28.82686005	      0.00000000	      0.00000000	      0.00000000
      5.69000000	     59.27469259	      3.60074497	     -1.65914226	      0.55919255	      1.00035815	     -0.28999398	     -1.48523452	    -15.59321995	     10.35101923	    -55.02862795	    -30.54087307	     18.36196612	    100.61349309	     -2.50269696	     -7.63504798	      1.45592372	    -56.83626622	     -2.43284156	      9.71568196	    -28.72245658	      0.00000000	      0.00000000	      0.00000000
      5.70000000	     59.25272517	      3.60234000	     -1.65438398	      0.55918936	      1.00034610	     -0.28998758	     -1.46517483	    -15.60219270	     10.35289486	    -55.02569619	    -30.57480453	     18.33967792	    100.64197862	     -2.47617485	     -7.63242683	      1.46730368	    -56.82846636	     -2.47354120	      9.71773042	    -28.62593764	      0.00000000	      0.00000000	      0.00000000
      5.71000000	     59.22744586	      3.60344569	     -1.65086916	      0.55919015	      1.00034813	     -0.28997788	     -1.44311977	    -15.60818953	     10.35488227	    -55.02118460	    -30.61229134	     18.30068610	    100.66198860	     -2.44525900	     -7.63113011	      1.48411332	    -56.81633424	     -2.53622800	      9.71765652	    -28.56036707	      0.00000000	      0.00000000	      0.00000000
      5.72000000	     59.20457776	      3.60382739	     -1.64820938	      0.55919183	      1.00035415	     -0.28997171	     -1.42348121	    -15.61251874	     10.35700656	    -55.01649793	    -30.64681405	     18.25822160	    100.67220439	     -2.41484274	     -7.63127578	      1.50274488	    -56.80285401	     -2.61613465	      9.71390754	    -28.55345286	      0.00000000	      0.00000000	      0.00000000
      5.73000000	     59.18969174	      3.60331390	     -1.64569567	      0.55918881	      1.00034763	     -0.28996863	     -1.41177006	    -15.61638096	     10.36012267	    -55.01187629	    -30.67443901	     18.22243381	    100.67493448	     -2.38976864	     -7.63218083	      1.51892738	    -56.79326351	     -2.70107946	      9.70560225	    -28.63488203	      0.00000000	      0.00000000	      0.00000000
      5.74000000	     59.18716019	      3.60232800	     -1.64367982	      0.55917890	      1.00032596	     -0.28996775	     -1.41365348	    -15.62064464	     10.36560467	    -55.00642932	    -30.69344747	     18.19926701	    100.67446640	     -2.37466805	     -7.63320340	      1.52937839	    -56.79165067	     -2.77111084	      9.69322498	    -28.83223879	      0.00000000	      0.00000000	      0.00000000
